<?xml version="1.0" standalone="no"?>
<!DOCTYPE svg PUBLIC "-//W3C//DTD SVG 20010904//EN"
 "http://www.w3.org/TR/2001/REC-SVG-20010904/DTD/svg10.dtd">
<svg version="1.0" xmlns="http://www.w3.org/2000/svg"
 width="120.000000pt" height="120.000000pt" viewBox="0 0 120.000000 120.000000"
 preserveAspectRatio="xMidYMid meet">
<metadata>
Created by potrace 1.10, written by Peter Selinger 2001-2011
</metadata>
<g transform="translate(0.000000,120.000000) scale(0.100000,-0.100000)"
fill="#000000" stroke="none">
<path d="M745 1190 c8 -13 35 -13 55 0 11 7 5 10 -23 10 -23 0 -36 -4 -32 -10z"/>
<path d="M845 1186 c31 -22 12 -46 -38 -46 -38 0 -48 -5 -92 -50 -41 -42 -48
-53 -39 -68 19 -29 49 -25 89 12 29 28 46 36 75 36 50 0 90 41 90 93 l0 37
-52 0 c-46 0 -50 -2 -33 -14z"/>
<path d="M1000 1186 c-27 -33 18 -72 48 -42 13 13 14 20 6 34 -15 23 -38 26
-54 8z"/>
<path d="M139 1117 c-38 -25 -48 -57 -24 -77 13 -11 22 -10 53 7 39 22 66 19
91 -10 11 -14 7 -19 -26 -40 -55 -35 -60 -45 -64 -121 -3 -56 -1 -71 13 -79
29 -19 58 17 58 73 0 44 3 49 30 60 67 28 89 96 49 152 -42 58 -122 74 -180
35z"/>
<path d="M993 966 c-57 -27 -83 -64 -83 -116 0 -25 11 -42 46 -76 l45 -45 -25
-30 c-34 -41 -43 -76 -23 -96 21 -21 42 -11 71 36 14 21 30 42 36 46 5 3 10
22 10 41 0 27 -9 45 -45 83 -51 54 -48 69 17 96 55 22 70 18 100 -25 15 -22
35 -40 43 -40 21 0 19 39 -2 57 -17 14 -17 14 1 9 16 -5 17 -2 11 21 -12 49
-33 63 -94 63 -38 0 -73 -8 -108 -24z"/>
<path d="M620 966 c-27 -33 18 -72 48 -42 13 13 14 20 6 34 -15 23 -38 26 -54
8z"/>
<path d="M0 895 c0 -22 4 -34 10 -30 13 8 13 52 0 60 -6 4 -10 -8 -10 -30z"/>
<path d="M540 916 c-27 -33 18 -72 48 -42 13 13 14 20 6 34 -15 23 -38 26 -54
8z"/>
<path d="M456 748 c-8 -13 -20 -44 -27 -70 -14 -52 -7 -68 40 -91 32 -15 38
-46 14 -76 -17 -21 -21 -21 -65 -10 -34 9 -48 19 -50 32 -4 29 -34 45 -56 31
-24 -15 -28 -71 -6 -95 19 -21 107 -49 157 -49 28 0 42 8 71 40 31 34 36 47
36 88 0 41 -5 53 -33 81 -32 30 -33 34 -24 71 17 61 -25 96 -57 48z"/>
<path d="M140 716 c-27 -33 18 -72 48 -42 13 13 14 20 6 34 -15 23 -38 26 -54
8z"/>
<path d="M890 566 c-27 -33 18 -72 48 -42 13 13 14 20 6 34 -15 23 -38 26 -54
8z"/>
<path d="M699 514 c-20 -24 1 -48 48 -54 55 -8 103 -44 103 -78 0 -43 -15 -55
-79 -68 -35 -7 -75 -24 -95 -39 -42 -32 -64 -88 -45 -111 18 -22 52 -13 66 17
19 39 34 48 109 64 90 19 107 37 112 120 5 73 -1 85 -72 136 -46 34 -124 41
-147 13z"/>
<path d="M0 464 l0 -35 46 3 c87 6 84 68 -2 68 -44 0 -44 0 -44 -36z"/>
<path d="M1134 481 c-44 -27 -74 -69 -74 -104 0 -34 40 -92 70 -102 20 -6 19
-8 -10 -41 -33 -38 -37 -53 -18 -72 21 -21 45 -13 72 22 30 40 33 56 9 56 -9
0 -13 3 -10 7 4 3 0 17 -8 30 -15 22 -14 23 10 23 29 0 35 27 8 37 -30 10 -52
34 -46 49 3 8 18 21 34 30 24 12 29 21 29 49 0 41 -18 45 -66 16z"/>
<path d="M160 327 c-29 -15 -37 -48 -16 -66 12 -10 23 -11 47 -2 25 9 37 8 60
-6 65 -39 8 -101 -79 -87 -48 7 -87 -21 -103 -77 -11 -34 -10 -42 4 -57 21
-20 45 -9 65 31 11 23 19 27 58 27 58 0 103 20 137 59 45 54 33 112 -34 161
-46 33 -95 39 -139 17z"/>
<path d="M0 271 c0 -63 0 -64 20 -46 25 23 26 56 0 86 l-19 24 -1 -64z"/>
<path d="M1010 116 c-27 -33 18 -72 48 -42 13 13 14 20 6 34 -15 23 -38 26
-54 8z"/>
<path d="M570 96 c-27 -33 18 -72 48 -42 13 13 14 20 6 34 -15 23 -38 26 -54
8z"/>
<path d="M756 49 c-14 -11 -26 -27 -26 -35 0 -19 34 -18 50 1 16 19 60 19 86
0 10 -8 30 -14 44 -14 24 0 24 1 -12 34 -45 42 -99 48 -142 14z"/>
</g>
</svg>
